<svg width="28" height="28" viewBox="0 0 28 28" fill="none" xmlns="http://www.w3.org/2000/svg">
<path d="M26.7514 1.24867L12.1886 15.8143M1.3209 10.4969L26.3214 1.033C26.4116 0.998498 26.5098 0.990855 26.6042 1.01099C26.6987 1.03113 26.7853 1.07819 26.8535 1.14648C26.9218 1.21477 26.9689 1.30138 26.989 1.39583C27.0091 1.49029 27.0015 1.58856 26.967 1.67877L17.505 26.6842C17.4673 26.7791 17.4015 26.8603 17.3164 26.9167C17.2313 26.9732 17.1309 27.0022 17.0288 26.9999C16.9267 26.9976 16.8278 26.964 16.7453 26.9038C16.6628 26.8435 16.6007 26.7595 16.5674 26.6629L12.3549 16.2801C12.3057 16.1329 12.2231 15.9992 12.1134 15.8895C12.0038 15.7798 11.8701 15.6972 11.723 15.648L1.34215 11.4384C1.24436 11.4058 1.15901 11.3439 1.09779 11.2609C1.03656 11.178 1.00245 11.0782 1.00013 10.9751C0.997801 10.8721 1.02737 10.7708 1.08479 10.6852C1.14221 10.5996 1.22468 10.5339 1.3209 10.4969V10.4969Z" stroke="black" stroke-width="2" stroke-linecap="round" stroke-linejoin="round"/>
</svg>
